<svg width="1440" height="1148" viewBox="0 0 1440 1148" fill="none" xmlns="http://www.w3.org/2000/svg">
<path d="M642.348 709.909C568.387 716.305 414.009 687.809 388.182 522.651C355.897 316.203 385.747 286.967 266.485 254.625C147.223 222.284 66.0868 338.337 -89.6487 166.971C-245.384 -4.39534 22.4994 -191.193 -115.488 -228.847C-253.475 -266.501 -222.017 -122.027 -314.315 -191.901C-388.154 -247.801 -377.109 -313.411 -362.357 -339.229" stroke="#5C93B1" stroke-opacity="0.1"/>
<path d="M654.562 701.925C580.979 708.033 427.239 679.092 400.945 514.47C368.077 308.692 397.68 279.673 278.874 247.029C160.067 214.384 79.735 329.706 -75.8665 158.435C-231.468 -12.8367 34.4641 -197.967 -102.996 -235.971C-240.456 -273.975 -208.633 -129.938 -300.739 -199.876C-374.423 -255.827 -363.666 -321.148 -349.076 -346.815" stroke="#5C93B1" stroke-opacity="0.1"/>
<path d="M667.599 693.224C593.638 699.621 439.26 671.124 413.433 505.966C381.148 299.518 410.998 270.282 291.736 237.94C172.474 205.599 91.3378 321.652 -64.3977 150.286C-220.133 -21.0803 47.7504 -207.878 -90.2367 -245.532C-228.224 -283.186 -196.766 -138.712 -289.064 -208.586C-362.903 -264.486 -351.858 -330.096 -337.106 -355.914" stroke="#5C93B1" stroke-opacity="0.1"/>
<path d="M679.156 684.486C605.573 690.594 451.833 661.653 425.539 497.031C392.671 291.253 422.274 262.234 303.468 229.589C184.662 196.945 104.329 312.267 -51.2722 140.996C-206.874 -30.2758 59.0584 -215.406 -78.4019 -253.41C-215.862 -291.414 -184.039 -147.377 -276.144 -217.315C-349.829 -273.266 -339.071 -338.587 -324.482 -364.254" stroke="#5C93B1" stroke-opacity="0.1"/>
<path d="M692.364 675.636C618.602 681.899 464.571 653.213 438.542 488.359C406.006 282.293 435.733 253.166 316.722 220.699C197.712 188.233 116.97 303.912 -38.6466 132.653C-194.263 -38.6056 72.6372 -224.578 -65.0595 -262.377C-202.756 -300.175 -171.145 -155.953 -263.321 -225.83C-337.062 -281.731 -326.151 -347.186 -311.478 -372.926" stroke="#5C93B1" stroke-opacity="0.1"/>
<path d="M704.819 667.443C630.858 673.839 476.48 645.342 450.652 480.184C418.368 273.737 448.218 244.5 328.956 212.159C209.694 179.817 128.558 295.871 -27.1779 124.505C-182.913 -46.8618 84.9701 -233.659 -53.0169 -271.313C-191.004 -308.967 -159.546 -164.494 -251.845 -234.368C-325.683 -290.267 -314.638 -355.877 -299.886 -381.695" stroke="#5C93B1" stroke-opacity="0.1"/>
<path d="M717.033 659.459C643.43 665.544 489.634 636.539 463.276 471.844C430.328 265.974 459.93 236.953 341.077 204.255C222.225 171.557 141.908 286.897 -13.7986 115.506C-169.505 -55.8861 96.443 -240.998 -41.0711 -279.064C-178.585 -317.13 -146.703 -173.026 -238.86 -243.023C-312.586 -299.021 -301.847 -364.364 -287.262 -390.036" stroke="#5C93B1" stroke-opacity="0.1"/>
<path d="M729.413 650.004C655.472 656.423 501.15 627.99 475.386 462.905C443.182 256.55 473.033 227.315 353.817 195.026C234.602 162.738 153.45 278.774 -2.18073 107.528C-157.811 -63.7178 110.056 -250.533 -27.8769 -288.126C-165.81 -325.718 -134.411 -181.312 -226.658 -251.127C-300.456 -306.979 -289.391 -372.567 -274.635 -398.38" stroke="#5C93B1" stroke-opacity="0.1"/>
<path d="M742.21 641.512C668.448 647.775 514.417 619.089 488.388 454.235C455.852 248.169 485.579 219.042 366.568 186.575C247.557 154.109 166.815 269.788 11.1988 98.5292C-144.417 -72.7296 122.483 -258.702 -15.2141 -296.501C-152.911 -334.299 -121.3 -190.077 -213.476 -259.954C-287.217 -315.855 -276.306 -381.31 -261.633 -407.05" stroke="#5C93B1" stroke-opacity="0.1"/>
<path d="M754.835 633.17C681.053 639.41 526.967 610.66 500.874 445.733C468.258 239.574 497.984 210.446 378.926 177.926C259.869 145.406 179.142 261.103 23.4214 89.724C-132.3 -81.655 134.616 -267.61 -3.13434 -305.47C-140.885 -343.33 -109.215 -199.041 -201.443 -268.976C-275.225 -324.925 -264.333 -390.402 -249.664 -416.147" stroke="#5C93B1" stroke-opacity="0.1"/>
<path d="M766.633 624.222C692.692 630.641 538.37 602.208 512.606 437.124C480.402 230.769 510.253 201.533 391.037 169.245C271.821 136.957 190.67 252.993 35.0391 81.7467C-120.592 -89.4993 147.276 -276.315 9.34292 -313.907C-128.59 -351.499 -97.1913 -207.093 -189.438 -276.908C-263.236 -332.761 -252.172 -398.349 -237.415 -424.161" stroke="#5C93B1" stroke-opacity="0.1"/>
<path d="M779.503 616.992C705.9 623.077 552.105 594.073 525.747 429.377C492.799 223.507 522.401 194.487 403.548 161.789C284.695 129.091 204.378 244.431 48.6722 73.0392C-107.034 -98.3526 158.914 -283.464 21.3998 -321.53C-116.114 -359.596 -84.2325 -215.492 -176.389 -285.489C-250.115 -341.487 -239.376 -406.83 -224.791 -432.502" stroke="#5C93B1" stroke-opacity="0.1"/>
<path d="M792.055 607.388C718.273 613.629 564.186 584.878 538.094 419.951C505.478 213.793 535.203 184.664 416.146 152.144C297.089 119.625 216.362 235.322 60.6412 63.9425C-95.0798 -107.437 171.836 -293.391 34.0855 -331.251C-103.665 -369.111 -71.9954 -224.822 -164.223 -294.758C-238.005 -350.706 -227.113 -416.183 -212.445 -441.928" stroke="#5C93B1" stroke-opacity="0.1"/>
<path d="M804.681 599.046C730.919 605.309 576.887 576.622 550.859 411.769C518.323 205.702 548.05 176.575 429.039 144.109C310.028 111.642 229.286 227.321 73.6696 56.0627C-81.9466 -115.196 184.953 -301.169 47.2567 -338.967C-90.44 -376.765 -58.8289 -232.544 -151.005 -302.42C-224.746 -358.322 -213.835 -423.777 -199.162 -449.516" stroke="#5C93B1" stroke-opacity="0.1"/>
<path d="M817.306 590.703C743.524 596.944 589.437 568.193 563.345 403.266C530.729 197.108 560.454 167.979 441.397 135.46C322.34 102.94 241.613 218.637 85.8922 47.2576C-69.8287 -124.121 197.087 -310.076 59.3365 -347.936C-78.4141 -385.796 -46.7443 -241.507 -138.972 -311.443C-212.754 -367.391 -201.862 -432.868 -187.193 -458.613" stroke="#5C93B1" stroke-opacity="0.1"/>
<path d="M925.197 -30.9108C937.152 -77.1726 987.546 -164.839 1093.49 -145.411C1225.91 -121.126 1237.29 -96.7892 1282.5 -162.319C1327.71 -227.849 1274.54 -301.778 1412.08 -359.898C1549.62 -418.019 1605.8 -215.676 1658.26 -291.445C1710.71 -367.214 1616.13 -378.827 1678.39 -420.009C1728.19 -452.954 1765.71 -432.302 1778.24 -417.857" stroke="#6CA3C0" stroke-opacity="0.1" stroke-linecap="round"/>
<path d="M927.836 -21.402C939.884 -67.4296 990.43 -154.715 1096.23 -135.634C1228.49 -111.784 1239.8 -87.6093 1285.12 -152.871C1330.43 -218.133 1277.47 -291.525 1415.02 -349.626C1552.57 -407.728 1608.25 -206.653 1660.82 -282.112C1713.4 -357.571 1618.94 -368.906 1681.23 -409.995C1731.06 -442.867 1768.5 -422.415 1780.99 -408.08" stroke="#6CA3C0" stroke-opacity="0.1" stroke-linecap="round"/>
<path d="M930.386 -12.1176C942.433 -58.1452 992.98 -145.43 1098.78 -126.35C1231.04 -102.499 1242.35 -78.3248 1287.67 -143.587C1332.98 -208.849 1280.02 -282.24 1417.57 -340.342C1555.12 -398.443 1610.8 -197.368 1663.37 -272.828C1715.95 -348.287 1621.49 -359.622 1683.78 -400.711C1733.61 -433.582 1771.05 -413.13 1783.54 -398.796" stroke="#6CA3C0" stroke-opacity="0.1" stroke-linecap="round"/>
<path d="M931.858 -2.6645C943.843 -48.9381 994.321 -136.638 1100.36 -117.248C1232.9 -93.0114 1244.29 -68.6749 1289.57 -134.233C1334.85 -199.791 1281.65 -273.71 1419.35 -331.893C1557.05 -390.076 1613.21 -187.724 1665.74 -263.525C1718.27 -339.327 1623.61 -350.904 1685.94 -392.117C1735.8 -425.087 1773.35 -404.446 1785.89 -390.004" stroke="#6CA3C0" stroke-opacity="0.1" stroke-linecap="round"/>
<path d="M934.497 6.84434C946.575 -39.1951 997.205 -126.513 1103.1 -107.471C1235.48 -83.6686 1246.79 -59.495 1292.18 -124.785C1337.57 -190.074 1284.58 -263.457 1422.29 -321.621C1560 -379.785 1615.65 -178.701 1668.31 -254.192C1720.96 -329.684 1626.41 -340.984 1688.78 -382.103C1738.67 -414.999 1776.14 -394.559 1788.64 -380.227" stroke="#6CA3C0" stroke-opacity="0.1" stroke-linecap="round"/>
<path d="M937.351 16.8923C949.365 -29.3932 999.927 -117.126 1106.06 -97.7751C1238.73 -73.586 1250.11 -49.2502 1295.46 -114.836C1340.81 -180.422 1287.59 -254.331 1425.45 -312.577C1563.31 -370.823 1619.44 -168.462 1672.05 -244.295C1724.66 -320.129 1629.91 -331.671 1692.32 -372.914C1742.25 -405.909 1779.83 -385.279 1792.37 -370.84" stroke="#6CA3C0" stroke-opacity="0.1" stroke-linecap="round"/>
<path d="M939.9 26.1767C951.855 -20.0851 1002.25 -107.752 1108.19 -88.3238C1240.62 -64.0388 1252 -39.7016 1297.21 -105.232C1342.42 -170.762 1289.24 -244.69 1426.78 -302.811C1564.33 -360.931 1620.51 -158.589 1672.96 -234.358C1725.41 -310.127 1630.84 -321.739 1693.09 -362.921C1742.89 -395.867 1780.41 -375.214 1792.95 -360.77" stroke="#6CA3C0" stroke-opacity="0.1" stroke-linecap="round"/>
<path d="M942.45 35.4612C954.434 -10.8124 1004.91 -98.5123 1110.95 -79.1227C1243.5 -54.8857 1254.88 -30.5491 1300.16 -96.1071C1345.44 -161.665 1292.24 -235.584 1429.94 -293.767C1567.64 -351.951 1623.8 -149.599 1676.33 -225.4C1728.86 -301.201 1634.2 -312.779 1696.53 -353.991C1746.39 -386.961 1783.94 -366.32 1796.49 -351.878" stroke="#6CA3C0" stroke-opacity="0.1" stroke-linecap="round"/>
<path d="M-246.572 753.641C-177.886 725.474 -22.0356 706.625 51.8809 856.56C144.276 1043.98 124.506 1080.79 247.986 1076.08C371.466 1071.38 414.291 936.405 614.053 1053.52C813.816 1170.63 613.847 1428.83 756.784 1423.61C899.721 1418.39 826.601 1289.87 935.54 1329.04C1022.69 1360.37 1031.72 1426.28 1025.34 1455.33" stroke="#5C93B1" stroke-opacity="0.1"/>
<path d="M-255.848 764.905C-187.436 737.126 -32.0629 718.89 42.1391 868.175C134.891 1054.78 115.293 1091.31 238.428 1087.03C361.563 1082.75 403.839 948.715 603.445 1065.77C803.051 1182.84 604.447 1438.86 746.986 1434.13C889.525 1429.4 816.186 1301.42 924.96 1340.7C1011.98 1372.12 1021.2 1437.68 1014.93 1466.53" stroke="#5C93B1" stroke-opacity="0.1"/>
<path d="M-265.696 777.098C-197.011 748.932 -41.1602 730.082 32.7563 880.017C125.152 1067.44 105.382 1104.25 228.862 1099.54C352.341 1094.84 395.167 959.863 594.929 1076.97C794.691 1194.08 594.722 1452.28 737.659 1447.06C880.596 1441.84 807.476 1313.33 916.415 1352.49C1003.57 1383.82 1012.59 1449.74 1006.22 1478.78" stroke="#5C93B1" stroke-opacity="0.1"/>
<path d="M-274.121 788.886C-205.709 761.108 -50.3357 742.871 23.8663 892.156C116.619 1078.76 97.0197 1115.29 220.155 1111.01C343.29 1106.73 385.566 972.696 585.172 1089.76C784.778 1206.82 586.175 1462.84 728.713 1458.11C871.252 1453.39 797.913 1325.4 906.687 1364.68C993.707 1396.1 1002.92 1461.66 996.654 1490.51" stroke="#5C93B1" stroke-opacity="0.1"/>
<path d="M-284.088 801.273C-215.552 773.293 -59.9763 754.728 14.0414 904.312C106.563 1091.29 86.8781 1127.96 210.155 1123.45C333.433 1118.94 375.993 984.441 575.61 1101.49C775.226 1218.53 575.95 1475.65 718.653 1470.65C861.356 1465.66 788.164 1337.43 896.988 1376.63C984.046 1407.99 993.157 1473.72 986.829 1502.67" stroke="#5C93B1" stroke-opacity="0.1"/>
<path d="M-293.531 812.808C-224.846 784.642 -68.9952 765.792 4.92124 915.727C97.3168 1103.15 77.5466 1139.96 201.026 1135.25C324.506 1130.55 367.331 995.573 567.094 1112.68C766.856 1229.79 566.887 1487.99 709.824 1482.77C852.761 1477.55 779.641 1349.04 888.58 1388.2C975.731 1419.53 984.76 1485.45 978.38 1514.49" stroke="#5C93B1" stroke-opacity="0.1"/>
<path d="M-302.808 824.072C-234.37 796.31 -78.9247 778.118 -4.63968 927.454C88.2166 1114.12 68.6191 1150.65 191.814 1146.41C315.01 1142.17 357.266 1008.12 557.008 1125.26C756.75 1242.41 558.126 1498.42 700.734 1493.74C843.343 1489.05 769.928 1361.02 878.769 1400.34C965.841 1431.79 975.083 1497.37 968.819 1526.22" stroke="#5C93B1" stroke-opacity="0.1"/>
<path d="M-311.804 836.79C-243.144 808.607 -87.3659 789.713 -13.5325 939.597C78.7593 1126.95 58.9876 1163.76 182.407 1159.02C305.827 1154.28 348.672 1019.32 548.298 1136.34C747.925 1253.37 547.977 1511.58 690.844 1506.32C833.711 1501.06 760.667 1372.59 869.539 1411.71C956.637 1443.01 965.641 1508.91 959.256 1537.95" stroke="#5C93B1" stroke-opacity="0.1"/>
<path d="M-321.485 848.712C-252.95 820.731 -97.3737 802.166 -23.356 951.751C69.166 1138.73 49.4807 1175.4 172.758 1170.89C296.035 1166.38 338.596 1031.88 538.212 1148.92C737.829 1265.97 538.553 1523.09 681.256 1518.09C823.958 1513.1 750.767 1384.87 859.59 1424.07C946.649 1455.43 955.759 1521.16 949.432 1550.1" stroke="#5C93B1" stroke-opacity="0.1"/>
<path d="M-331.048 860.441C-262.486 832.476 -106.838 813.955 -32.7374 963.591C59.8885 1150.64 40.2047 1187.3 163.542 1182.83C286.88 1178.36 329.42 1043.85 529.173 1160.97C728.925 1278.1 529.628 1535.21 672.401 1530.26C815.174 1525.3 741.906 1397.03 850.796 1436.27C937.908 1467.66 947.043 1533.41 940.722 1562.36" stroke="#5C93B1" stroke-opacity="0.1"/>
<path d="M-339.639 872.5C-270.979 844.317 -115.201 825.423 -41.3676 975.307C50.9242 1162.66 31.1525 1199.47 154.572 1194.73C277.992 1189.99 320.837 1055.03 520.463 1172.05C720.09 1289.08 520.141 1547.29 663.009 1542.03C805.876 1536.77 732.832 1408.3 841.704 1447.42C928.802 1478.72 937.806 1544.62 931.421 1573.66" stroke="#5C93B1" stroke-opacity="0.1"/>
<path d="M-349.767 883.24C-281.33 855.477 -125.884 837.285 -51.5994 986.621C41.2569 1173.29 21.6594 1209.82 144.855 1205.58C268.05 1201.33 310.306 1067.29 510.048 1184.43C709.79 1301.58 511.166 1557.59 653.775 1552.9C796.383 1548.22 722.968 1420.18 831.809 1459.5C918.881 1490.96 928.123 1556.53 921.86 1585.39" stroke="#5C93B1" stroke-opacity="0.1"/>
<path d="M-358.883 896.151C-290.321 868.186 -134.673 849.665 -60.5725 999.301C32.0534 1186.35 12.3696 1223.01 135.707 1218.54C259.045 1214.07 301.585 1079.56 501.338 1196.68C701.09 1313.81 501.793 1570.92 644.566 1565.97C787.339 1561.01 714.071 1432.74 822.961 1471.98C910.073 1503.37 919.208 1569.12 912.887 1598.07" stroke="#5C93B1" stroke-opacity="0.1"/>
<path d="M-368.445 907.879C-299.909 879.899 -144.333 861.334 -70.3156 1010.92C22.2064 1197.9 2.52115 1234.57 125.798 1230.06C249.076 1225.54 291.636 1091.05 491.253 1208.09C690.869 1325.14 491.593 1582.26 634.296 1577.26C776.999 1572.26 703.807 1444.04 812.631 1483.24C899.689 1514.6 908.8 1580.33 902.472 1609.27" stroke="#5C93B1" stroke-opacity="0.1"/>
<path d="M-378.007 919.608C-309.446 891.643 -153.798 873.123 -79.6971 1022.76C12.9288 1209.8 -6.75506 1246.47 116.583 1242C239.92 1237.52 282.461 1103.01 482.213 1220.14C681.965 1337.27 482.669 1594.38 625.441 1589.42C768.214 1584.47 694.946 1456.2 803.836 1495.44C890.948 1526.83 900.083 1592.58 893.762 1621.52" stroke="#5C93B1" stroke-opacity="0.1"/>
<g filter="url(#filter0_f_102_93)">
<circle cx="-109.5" cy="522.5" r="285.5" fill="url(#paint0_diamond_102_93)" fill-opacity="0.3"/>
</g>
<defs>
<filter id="filter0_f_102_93" x="-515" y="117" width="811" height="811" filterUnits="userSpaceOnUse" color-interpolation-filters="sRGB">
<feFlood flood-opacity="0" result="BackgroundImageFix"/>
<feBlend mode="normal" in="SourceGraphic" in2="BackgroundImageFix" result="shape"/>
<feGaussianBlur stdDeviation="60" result="effect1_foregroundBlur_102_93"/>
</filter>
<radialGradient id="paint0_diamond_102_93" cx="0" cy="0" r="1" gradientUnits="userSpaceOnUse" gradientTransform="translate(-110 522) rotate(87.4209) scale(500.006)">
<stop stop-color="#4D7D98"/>
<stop offset="1" stop-color="#496575" stop-opacity="0"/>
</radialGradient>
</defs>
</svg>
